<svg width="29" height="23" viewBox="0 0 29 23" fill="none" xmlns="http://www.w3.org/2000/svg">
<path d="M8.65108 18.5971H20.3489C20.5113 18.5968 20.6679 18.6573 20.788 18.7668C20.908 18.8762 20.9827 19.0265 20.9973 19.1883C21.012 19.35 20.9656 19.5114 20.8672 19.6406C20.7689 19.7698 20.6257 19.8576 20.4659 19.8865L20.3489 19.8969H8.65108C8.48868 19.8972 8.33205 19.8367 8.21204 19.7273C8.09203 19.6178 8.01733 19.4675 8.00266 19.3057C7.98799 19.144 8.0344 18.9826 8.13276 18.8534C8.23112 18.7242 8.3743 18.6365 8.5341 18.6075L8.65108 18.5971H20.3489H8.65108ZM14.383 3.0104L14.5 3C14.6521 2.99995 14.7994 3.05325 14.9163 3.15063C15.0331 3.248 15.1121 3.38328 15.1395 3.5329L15.1499 3.64988V15.0774L18.6358 11.5927C18.7434 11.4851 18.8853 11.4185 19.0368 11.4048C19.1883 11.391 19.3399 11.4308 19.4651 11.5173L19.5561 11.5927C19.6635 11.7004 19.7298 11.8424 19.7433 11.9939C19.7569 12.1454 19.7168 12.2969 19.6302 12.422L19.5548 12.5116L14.9601 17.1076C14.8524 17.2151 14.7104 17.2813 14.5589 17.2949C14.4074 17.3084 14.2559 17.2684 14.1309 17.1817L14.0399 17.1076L9.44523 12.5116C9.33009 12.397 9.26207 12.2434 9.25455 12.0811C9.24704 11.9188 9.30059 11.7596 9.40465 11.6349C9.5087 11.5101 9.65572 11.4288 9.81673 11.4071C9.97773 11.3853 10.141 11.4246 10.2745 11.5173L10.3642 11.5927L13.8501 15.0774V3.64988C13.8501 3.49778 13.9034 3.35047 14.0007 3.23362C14.0981 3.11677 14.2334 3.03778 14.383 3.0104L14.5 3L14.383 3.0104Z" fill="white"/>
<rect x="0.25" y="0.25" width="28.5" height="22.5" rx="1.75" stroke="white" stroke-width="0.5"/>
</svg>
